<svg xmlns="http://www.w3.org/2000/svg" viewBox="0 0 512 512"><defs><linearGradient id="g" x1="0" x2="1" y1="0" y2="1"><stop stop-color="#a98cff"/><stop offset="1" stop-color="#6544e5"/></linearGradient></defs><rect width="512" height="512" rx="145" fill="url(#g)"/><path d="M144 256c0-55 43-99 96-99 38 0 66 25 89 63 18 30 29 48 49 48 21 0 38-17 38-39s-17-39-38-39c-14 0-27 7-34 19" fill="none" stroke="white" stroke-width="44" stroke-linecap="round"/><path d="M368 256c0 55-43 99-96 99-38 0-66-25-89-63-18-30-29-48-49-48-21 0-38 17-38 39s17 39 38 39c14 0 27-7 34-19" fill="none" stroke="white" stroke-width="44" stroke-linecap="round"/></svg>
